HIERARCHY
ROOT ui
{
	 OFFSET 0 0 0
	 CHANNELS 3 XPosition YPosition Z Position
	 EndSite
	 {
	 OFFSET 0 -1 0
	 }
}
ROOT li
{
	 OFFSET 0 0 0
	 CHANNELS 3 XPosition YPosition Z Position
	 EndSite
	 {
	 OFFSET 0 -1 0
	 }
}
ROOT ul
{
	 OFFSET 0 0 0
	 CHANNELS 3 XPosition YPosition Z Position
	 EndSite
	 {
	 OFFSET 0 -1 0
	 }
}
ROOT ll
{
	 OFFSET 0 0 0
	 CHANNELS 3 XPosition YPosition Z Position
	 EndSite
	 {
	 OFFSET 0 -1 0
	 }
}
ROOT tt
{
	 OFFSET 0 0 0
	 CHANNELS 3 XPosition YPosition Z Position
	 EndSite
	 {
	 OFFSET 0 -1 0
	 }
}
ROOT tb
{
	 OFFSET 0 0 0
	 CHANNELS 3 XPosition YPosition Z Position
	 EndSite
	 {
	 OFFSET 0 -1 0
	 }
}
ROOT td
{
	 OFFSET 0 0 0
	 CHANNELS 3 XPosition YPosition Z Position
	 EndSite
	 {
	 OFFSET 0 -1 0
	 }
}
ROOT v
{
	 OFFSET 0 0 0
	 CHANNELS 3 XPosition YPosition Z Position
	 EndSite
	 {
	 OFFSET 0 -1 0
	 }
}
ROOT bn
{
	 OFFSET 0 0 0
	 CHANNELS 3 XPosition YPosition Z Position
	 EndSite
	 {
	 OFFSET 0 -1 0
	 }
}
MOTION
Frames: 18
Frame Time: 0.002
0.0033050200939178467	0.001653643012046814	0		0.5782766723632813	-2.413696533203125	0		-1.0209766235351563	0.0850088882446289	0		-0.6765932006835937	-2.5032431640625	0		1.668620361328125	-0.6285770874023437	0		3.366818359375	-0.2860674743652344	0		4.71520458984375	-0.14037228393554688	0		5.62300732421875	0.11240026092529297	0		-0.2709051513671875	5.89440283203125	0		
-2.426300048828125E-4	-0.0014926849603652955	0		0.5487285766601563	-2.4136123046875	0		-1.041476806640625	0.087030029296875	0		-0.6811799926757812	-2.507372314453125	0		1.657983154296875	-0.640678955078125	0		3.3622490234375	-0.291244873046875	0		4.7116279296875	-0.14657490539550783	0		5.622634765625	0.11198479461669922	0		-0.27234576416015627	5.8952412109375	0		
-0.0047618021965026855	-0.00562017297744751	0		0.573168701171875	-2.419011962890625	0		-1.04195849609375	0.08687886047363282	0		-0.6837124633789062	-2.509509521484375	0		1.657492431640625	-0.6408641357421875	0		3.36580810546875	-0.28648828125	0		4.7111435546875	-0.1467984619140625	0		5.6265224609375	0.09937550354003906	0		-0.2727542724609375	5.89508056640625	0		
-0.0011662449836730958	-0.0018134880065917968	0		0.5187445678710938	-2.41368115234375	0		-1.0314903564453124	0.07663539886474609	0		-0.6821676025390625	-2.507675537109375	0		1.657043212890625	-0.6410421142578125	0		3.35638232421875	-0.2846059875488281	0		4.71868212890625	-0.14908929443359376	0		5.62197216796875	0.11118509674072266	0		-0.25702777099609375	5.9047802734375	0		
0.024437862396240233	-0.00220204496383667	0		0.5763157348632812	-2.414370361328125	0		-1.01878369140625	0.08737922668457031	0		-0.7426018676757813	-2.508265625	0		1.6637132568359374	-0.6332783203125	0		3.364965087890625	-0.28688238525390625	0		4.71335888671875	-0.1412554473876953	0		5.6288212890625	0.11064146423339843	0		-0.25833596801757813	5.90564306640625	0		
0.00112083899974823	8.653460144996643E-4	0		0.5219868774414063	-2.409025146484375	0		-1.034072265625	0.09338658905029297	0		-0.6789369506835937	-2.50398828125	0		1.663359375	-0.6334437255859375	0		3.36461572265625	-0.28707003784179685	0		4.71301123046875	-0.1414607391357422	0		5.62144091796875	0.11042648315429687	0		-0.27271395874023435	5.8936318359375	0		
0.013879913330078125	0.006607870101928711	0		0.5735933837890625	-2.41664794921875	0		-1.0325233154296876	0.0762447738647461	0		-0.7281893310546875	-2.495666259765625	0		1.655982177734375	-0.6415380249023438	0		3.36431640625	-0.28725115966796877	0		4.70965869140625	-0.14763145446777343	0		5.62835986328125	0.10990520477294922	0		-0.27392398071289065	5.89450732421875	0		
-0.006486406803131103	-0.006339171886444092	0		0.5443164672851563	-2.416519775390625	0		-1.0436771240234375	0.08622708129882813	0		-0.6955343627929688	-2.503092529296875	0		1.6557266845703125	-0.6416908569335937	0		3.355084228515625	-0.28534283447265624	0		4.70940966796875	-0.14782313537597655	0		5.62104931640625	0.10971469116210937	0		-0.274096435546875	5.89437890625	0		
-0.002651909112930298	-0.0025028750896453856	0		0.5440845336914063	-2.416653076171875	0		-1.032970947265625	0.07601213836669922	0		-0.745839111328125	-2.510748779296875	0		1.6555166015625	-0.6418379516601562	0		3.359813720703125	-0.29255673217773437	0		4.71718701171875	-0.1500816192626953	0		5.6209033203125	0.10937751770019531	0		-0.27324447631835935	5.89224658203125	0		
2.1558499336242677E-4	3.4746500849723816E-4	0		0.5209617309570312	-2.409569091796875	0		-1.024056640625	0.08381890106201172	0		-0.6690411987304687	-2.51257373046875	0		1.662422607421875	-0.6340442504882813	0		3.370788330078125	-0.27782034301757813	0		4.71500634765625	-0.15224026489257814	0		5.623693359375	0.1228297348022461	0		-0.2572436218261719	5.9019794921875	0		
0.030130178451538085	0.003952850103378296	0		0.5757840576171875	-2.413200439453125	0		-1.0201492309570312	0.08667618560791016	0		-0.7041421508789063	-2.507359375	0		1.6653314208984376	-0.6302072143554688	0		3.36357177734375	-0.2879089050292969	0		4.7119765625	-0.1423814697265625	0		5.62783154296875	0.1085870361328125	0		-0.2582814636230469	5.90387451171875	0		
-0.0030201869010925294	-0.0028530070781707766	0		0.5726358642578125	-2.417289794921875	0		-1.0442435302734374	0.08579725646972657	0		-0.6842644653320312	-2.508649169921875	0		1.6551273193359375	-0.642242431640625	0		3.348482666015625	-0.2879154052734375	0		4.70883251953125	-0.14851243591308594	0		5.62063623046875	0.10845771789550782	0		-0.2734102783203125	5.8929052734375	0		
-0.012996285438537598	0.006132932186126709	0		0.572553955078125	-2.4174013671875	0		-1.03339599609375	0.07559870910644531	0		-0.6942725830078125	-2.500656982421875	0		1.6550615234375	-0.6423638916015625	0		3.359373291015625	-0.29315399169921874	0		4.708771484375	-0.14866156005859374	0		5.6176923828125	0.09614144134521484	0		-0.2744075012207031	5.893810546875	0		
-0.007157968997955322	-0.007023719787597657	0		0.5704661254882812	-2.420489013671875	0		-1.0334361572265625	0.07550532531738281	0		-0.675501220703125	-2.5189287109375	0		1.655015625	-0.6424786987304687	0		3.354395263671875	-0.28623629760742186	0		4.7067109375	-0.15078208923339845	0		5.6205615234375	0.10793459320068359	0		-0.25830917358398436	5.90356201171875	0		
-0.003149113893508911	-0.0031581149101257322	0		0.5205166625976563	-2.4101259765625	0		-1.1054234619140626	0.08008380126953125	0		-0.7444597778320312	-2.509380615234375	0		1.6580201416015625	-0.6386150512695312	0		3.36334619140625	-0.2884396667480469	0		4.7158115234375	-0.1369953155517578	0		5.62344677734375	0.12147674560546876	0		-0.25829721069335937	5.903466796875	0		
-0.009057229042053222	0.00880461311340332	0		0.5754531860351563	-2.413732421875	0		-1.0284462890625	0.07928175354003907	0		-0.6804498901367187	-2.505064208984375	0		1.6620338134765624	-0.634754150390625	0		3.363324951171875	-0.28855081176757813	0		4.71666064453125	-0.1511226348876953	0		5.627658203125	0.1073277587890625	0		-0.25828445434570313	5.90337548828125	0		
-0.0031836960315704344	-0.003338351011276245	0		0.545410888671875	-2.41554345703125	0		-1.03349755859375	0.07524510955810547	0		-0.6845123291015625	-2.509111572265625	0		1.6549422607421875	-0.6427835693359375	0		3.363308837890625	-0.28865298461914063	0		4.7086640625	-0.14915634155273438	0		5.62051416015625	0.1072956314086914	0		-0.2733753662109375	5.8924287109375	0		
-0.0031947200298309327	-0.003421309947967529	0		0.5703447265625	-2.420860595703125	0		-1.0394615478515625	0.080220947265625	0		-0.696484130859375	-2.5040810546875	0		1.64999462890625	-0.6358255004882812	0		3.35431591796875	-0.2866628112792969	0		4.70865283203125	-0.14925396728515625	0		5.6247392578125	0.09491624450683593	0		-0.27435870361328124	5.89335595703125	0		
